<svg width="200" height="200" viewBox="0 0 200 200" fill="none" xmlns="http://www.w3.org/2000/svg">
<circle cx="100" cy="100" r="100" fill="#8AC63F"/>
<g clip-path="url(#clip0)">
<path d="M70.0001 42.8333C65.0001 45.3333 63.3335 52 66.6668 55.3333C70.8335 47.8333 77.5001 50.3333 87.5001 58.6667C94.1668 64.5 103.333 59.5 103.333 59.5C103.333 59.5 105 69.5 117.5 71.1667C131.667 72.8333 136.667 64.5 136.667 64.5C136.667 64.5 140 72.8333 152.5 67.8333C161.667 64.5 158.333 58.6667 158.333 58.6667C158.333 58.6667 166.667 58.6667 166.667 52.8333C166.667 45.3333 157.5 46.1667 157.5 46.1667C157.5 46.1667 159.167 37.8333 150 37C141.667 36.1667 139.167 41.1667 139.167 41.1667C139.167 41.1667 136.667 32 124.167 32C112.5 32 108.333 42.8333 108.333 42.8333C108.333 42.8333 105 37.8333 95.0001 37.8333C87.5001 37.8333 84.1668 43.6667 84.1668 43.6667C84.1668 43.6667 75.0001 39.5 70.0001 42.8333Z" fill="white"/>
<path d="M133.333 132.833V115.333L100 132.833V115.333H80.0002L75.0002 57H58.3335L53.3335 115.333H33.3335V165.333H166.667V115.333L133.333 132.833ZM83.3335 148.667H50.0002V132H83.3335V148.667Z" fill="white"/>
</g>
<defs>
<clipPath id="clip0">
<rect width="133.333" height="133.333" fill="white" transform="translate(33.3335 32)"/>
</clipPath>
</defs>
</svg>
