<svg width="200" height="200" viewBox="0 0 200 200" fill="none" xmlns="http://www.w3.org/2000/svg">
<circle cx="100" cy="100" r="100" fill="#8AC63F"/>
<path d="M25.65 73.2875L46.7469 41.6438L44.6219 40.2313L42.5031 38.8157L21.4062 70.4594L23.5313 71.8719L25.65 73.2875Z" fill="white"/>
<path d="M31.4434 77.1468L33.559 78.5625L54.6496 46.9187L52.534 45.5031L50.409 44.0906L29.3184 75.7343L31.4434 77.1468Z" fill="white"/>
<path d="M39.3473 82.4188L41.4723 83.8344L62.566 52.1938L60.4441 50.7813L58.3254 49.3625L37.2285 81.0063L39.3473 82.4188Z" fill="white"/>
<path d="M150.806 132.341L152.925 133.753L162.766 118.994L160.647 117.581L158.525 116.166L148.688 130.925L150.806 132.341Z" fill="white"/>
<path d="M174.344 126.716L164.51 141.472L166.625 142.891L168.75 144.303L178.588 129.541L176.469 128.128L174.344 126.716Z" fill="white"/>
<path d="M160.834 139.025L170.678 124.269L168.553 122.853L166.434 121.441L156.597 136.2L158.715 137.613L160.834 139.025Z" fill="white"/>
<path d="M149.397 134.459L147.272 133.047L137.435 147.809L139.55 149.219L141.675 150.634L151.513 135.875L149.397 134.459Z" fill="white"/>
<path d="M157.306 139.734L155.181 138.319L145.344 153.081L147.463 154.497L149.588 155.909L159.425 141.15L157.306 139.734Z" fill="white"/>
<path d="M163.09 143.594L153.253 158.356L155.372 159.772L157.49 161.181L167.334 146.422L165.209 145.006L163.09 143.594Z" fill="white"/>
<path d="M23.5313 128.128L21.4062 129.541L42.5031 161.181L44.6219 159.772L46.7469 158.356L25.65 126.716L23.5313 128.128Z" fill="white"/>
<path d="M42.6871 139.734L40.5684 141.15L50.409 155.909L52.534 154.497L54.6496 153.081L44.8121 138.319L42.6871 139.734Z" fill="white"/>
<path d="M39.3473 117.581L37.2285 118.994L58.3254 150.634L60.4441 149.219L62.566 147.809L41.4723 116.166L39.3473 117.581Z" fill="white"/>
<path d="M29.3184 124.269L39.159 139.025L41.2777 137.613L43.4027 136.2L33.559 121.441L31.4434 122.853L29.3184 124.269Z" fill="white"/>
<path d="M165.209 54.9938L167.334 53.5782L157.49 38.8157L155.372 40.2313L153.253 41.6438L163.097 56.4063L165.209 54.9938Z" fill="white"/>
<path d="M149.397 65.5407L151.513 64.125L141.675 49.3625L139.55 50.7813L137.435 52.1938L147.272 66.9532L149.397 65.5407Z" fill="white"/>
<path d="M164.51 58.5281L174.344 73.2875L176.469 71.8718L178.588 70.4593L168.75 55.7L166.625 57.1125L164.51 58.5281Z" fill="white"/>
<path d="M168.553 77.1468L170.678 75.7343L149.588 44.0906L147.463 45.5031L145.344 46.9187L166.434 78.5625L168.553 77.1468Z" fill="white"/>
<path d="M160.647 82.4187L162.766 81.0062L152.925 66.2437L150.806 67.6593L148.688 69.0749L158.525 83.8343L160.647 82.4187Z" fill="white"/>
<path d="M99.9996 58.8782C77.3246 58.8782 58.8809 77.3251 58.8809 100C58.8809 122.675 77.3246 141.122 99.9996 141.122C122.675 141.122 141.118 122.675 141.118 100C141.118 77.3251 122.675 58.8782 99.9996 58.8782ZM126.368 94.7282C124.291 93.3427 121.961 92.38 119.511 91.8951C117.062 91.4102 114.541 91.4126 112.092 91.9021C109.643 92.3917 107.315 93.3588 105.24 94.7483C103.165 96.1377 101.385 97.9223 99.9996 100C97.2012 104.196 92.8511 107.108 87.9058 108.097C82.9605 109.087 77.8248 108.071 73.6277 105.275C69.6403 102.619 66.8082 98.5495 65.7027 93.8876C68.6059 77.5688 82.8621 65.1282 100.003 65.1282C119.228 65.1282 134.871 80.7719 134.871 100C134.871 102.094 134.656 104.134 134.296 106.128C133.195 101.46 130.361 97.3855 126.368 94.7282Z" fill="white"/>
</svg>
