<svg width="200" height="200" viewBox="0 0 200 200" fill="none" xmlns="http://www.w3.org/2000/svg">
<circle cx="100" cy="100" r="100" fill="#8AC63F"/>
<g clip-path="url(#clip0)">
<path d="M91.3368 120.573C91.3368 118.229 91.174 116.048 90.8485 114.03C90.5229 112.012 89.9913 110.059 89.2534 108.171C88.5156 106.283 87.4088 104.796 85.9331 103.711C84.4574 102.626 82.6996 102.083 80.6597 102.083C77.8819 104.861 74.4965 106.25 70.5034 106.25C66.5104 106.25 63.1249 104.861 60.3472 102.083C58.3072 102.083 56.5494 102.626 55.0737 103.711C53.598 104.796 52.4913 106.283 51.7534 108.171C51.0156 110.059 50.4839 112.012 50.1584 114.03C49.8328 116.048 49.6701 118.229 49.6701 120.573C49.6701 122.96 50.3537 124.989 51.7209 126.66C53.0881 128.331 54.7265 129.167 56.6362 129.167H84.3706C86.2803 129.167 87.9188 128.331 89.286 126.66C90.6532 124.989 91.3368 122.96 91.3368 120.573ZM83.0034 91.6667C83.0034 88.1944 81.7881 85.2431 79.3576 82.8125C76.927 80.3819 73.9756 79.1667 70.5034 79.1667C67.0312 79.1667 64.0798 80.3819 61.6493 82.8125C59.2187 85.2431 58.0034 88.1944 58.0034 91.6667C58.0034 95.1389 59.2187 98.0903 61.6493 100.521C64.0798 102.951 67.0312 104.167 70.5034 104.167C73.9756 104.167 76.927 102.951 79.3576 100.521C81.7881 98.0903 83.0034 95.1389 83.0034 91.6667ZM149.67 122.917V118.75C149.67 118.142 149.475 117.643 149.084 117.253C148.694 116.862 148.194 116.667 147.587 116.667H101.753C101.146 116.667 100.647 116.862 100.256 117.253C99.8654 117.643 99.6701 118.142 99.6701 118.75V122.917C99.6701 123.524 99.8654 124.023 100.256 124.414C100.647 124.805 101.146 125 101.753 125H147.587C148.194 125 148.694 124.805 149.084 124.414C149.475 124.023 149.67 123.524 149.67 122.917ZM124.67 106.25V102.083C124.67 101.476 124.475 100.977 124.084 100.586C123.694 100.195 123.194 100 122.587 100H101.753C101.146 100 100.647 100.195 100.256 100.586C99.8654 100.977 99.6701 101.476 99.6701 102.083V106.25C99.6701 106.858 99.8654 107.357 100.256 107.747C100.647 108.138 101.146 108.333 101.753 108.333H122.587C123.194 108.333 123.694 108.138 124.084 107.747C124.475 107.357 124.67 106.858 124.67 106.25ZM149.67 106.25V102.083C149.67 101.476 149.475 100.977 149.084 100.586C148.694 100.195 148.194 100 147.587 100H135.087C134.479 100 133.98 100.195 133.589 100.586C133.199 100.977 133.003 101.476 133.003 102.083V106.25C133.003 106.858 133.199 107.357 133.589 107.747C133.98 108.138 134.479 108.333 135.087 108.333H147.587C148.194 108.333 148.694 108.138 149.084 107.747C149.475 107.357 149.67 106.858 149.67 106.25ZM149.67 89.5833V85.4167C149.67 84.809 149.475 84.3099 149.084 83.9193C148.694 83.5286 148.194 83.3333 147.587 83.3333H101.753C101.146 83.3333 100.647 83.5286 100.256 83.9193C99.8654 84.3099 99.6701 84.809 99.6701 85.4167V89.5833C99.6701 90.191 99.8654 90.6901 100.256 91.0807C100.647 91.4714 101.146 91.6667 101.753 91.6667H147.587C148.194 91.6667 148.694 91.4714 149.084 91.0807C149.475 90.6901 149.67 90.191 149.67 89.5833ZM41.3368 66.6667H158.003V60.4167C158.003 59.809 157.808 59.3099 157.417 58.9193C157.027 58.5286 156.528 58.3333 155.92 58.3333H43.4201C42.8124 58.3333 42.3133 58.5286 41.9227 58.9193C41.5321 59.3099 41.3368 59.809 41.3368 60.4167V66.6667ZM166.337 60.4167V139.583C166.337 142.448 165.317 144.9 163.277 146.94C161.237 148.98 158.785 150 155.92 150H43.4201C40.5555 150 38.1032 148.98 36.0633 146.94C34.0234 144.9 33.0034 142.448 33.0034 139.583V60.4167C33.0034 57.5521 34.0234 55.0998 36.0633 53.0599C38.1032 51.02 40.5555 50 43.4201 50H155.92C158.785 50 161.237 51.02 163.277 53.0599C165.317 55.0998 166.337 57.5521 166.337 60.4167Z" fill="white"/>
</g>
<defs>
<clipPath id="clip0">
<rect width="133.34" height="100" fill="white" transform="translate(33 50)"/>
</clipPath>
</defs>
</svg>
