<svg width="200" height="200" viewBox="0 0 200 200" fill="none" xmlns="http://www.w3.org/2000/svg">
<circle cx="100" cy="100" r="100" fill="#8AC63F"/>
<path d="M101.667 41.3334L51.6665 58V108C51.6665 135.617 74.0493 158 101.667 158C129.284 158 151.667 135.617 151.667 108V58L101.667 41.3334ZM142.292 108C142.292 130.435 124.101 148.625 101.667 148.625C79.2316 148.625 61.0415 130.435 61.0415 108V65.0313L101.667 50.7084L142.292 65.0313V108Z" fill="white"/>
<path d="M84.2708 94.862C83.8363 94.4255 83.3199 94.0792 82.7512 93.8429C82.1825 93.6066 81.5728 93.4849 80.957 93.4849C80.3411 93.4849 79.7314 93.6066 79.1627 93.8429C78.594 94.0792 78.0776 94.4255 77.6432 94.862C77.2067 95.2964 76.8604 95.8128 76.6241 96.3815C76.3878 96.9502 76.2661 97.5599 76.2661 98.1758C76.2661 98.7916 76.3878 99.4014 76.6241 99.97C76.8604 100.539 77.2067 101.055 77.6432 101.49L94.4921 118.339L94.7656 118.612C95.1765 119.024 95.6646 119.35 96.202 119.573C96.7393 119.796 97.3153 119.911 97.8971 119.911C98.4788 119.911 99.0548 119.796 99.5922 119.573C100.129 119.35 100.618 119.024 101.029 118.612L130.13 89.5104C130.542 89.0995 130.869 88.6113 131.091 88.074C131.314 87.5367 131.429 86.9606 131.429 86.3789C131.429 85.7972 131.314 85.2212 131.091 84.6838C130.869 84.1465 130.542 83.6584 130.13 83.2474L129.766 82.8828C129.355 82.4711 128.866 82.1444 128.329 81.9216C127.792 81.6987 127.216 81.584 126.634 81.584C126.052 81.584 125.476 81.6987 124.939 81.9216C124.402 82.1444 123.913 82.4711 123.503 82.8828L97.8906 108.482L84.2708 94.862Z" fill="white"/>
</svg>
