<svg width="200" height="200" viewBox="0 0 200 200" fill="none" xmlns="http://www.w3.org/2000/svg">
<circle cx="100" cy="100" r="100" fill="#8AC63F"/>
<path d="M58.3665 83L58.2832 83.6166C55.7773 84.4356 53.5945 86.026 52.0469 88.1603C50.4993 90.2946 49.6661 92.8636 49.6665 95.5V120.5C49.6665 123.815 50.9835 126.995 53.3277 129.339C55.6719 131.683 58.8513 133 62.1665 133H137.167C140.482 133 143.661 131.683 146.005 129.339C148.35 126.995 149.667 123.815 149.667 120.5V95.5C149.667 92.8545 148.828 90.2772 147.271 88.1388C145.713 86.0004 143.518 84.4112 141 83.6L140.925 83H145.5C146.605 83 147.665 82.561 148.446 81.7796C149.228 80.9982 149.667 79.9384 149.667 78.8333C149.667 77.7282 149.228 76.6684 148.446 75.887C147.665 75.1056 146.605 74.6666 145.5 74.6666H139.858L138.525 64.225C138.012 60.2037 136.051 56.5073 133.009 53.8275C129.968 51.1478 126.054 49.6685 122 49.6666H77.3248C73.2734 49.6657 69.3604 51.1406 66.3174 53.8154C63.2745 56.4902 61.3101 60.1819 60.7915 64.2L59.4415 74.6666H53.8332C52.7281 74.6666 51.6683 75.1056 50.8869 75.887C50.1055 76.6684 49.6665 77.7282 49.6665 78.8333C49.6665 79.9384 50.1055 80.9982 50.8869 81.7796C51.6683 82.561 52.7281 83 53.8332 83H58.3665ZM77.3248 58H121.992C124.018 57.9998 125.976 58.7384 127.498 60.0775C129.019 61.4166 130.001 63.2644 130.258 65.275L132.525 83H66.7748L69.0582 65.2666C69.3175 63.2576 70.2997 61.4118 71.8211 60.0743C73.3426 58.7369 75.2991 57.9995 77.3248 58ZM76.7498 114.242C75.9302 114.242 75.1185 114.08 74.3613 113.767C73.604 113.453 72.9159 112.993 72.3363 112.413C71.7567 111.834 71.297 111.146 70.9833 110.389C70.6696 109.631 70.5082 108.82 70.5082 108C70.5082 107.18 70.6696 106.369 70.9833 105.611C71.297 104.854 71.7567 104.166 72.3363 103.586C72.9159 103.007 73.604 102.547 74.3613 102.233C75.1185 101.92 75.9302 101.758 76.7498 101.758C78.4052 101.758 79.9928 102.416 81.1634 103.586C82.3339 104.757 82.9915 106.345 82.9915 108C82.9915 109.655 82.3339 111.243 81.1634 112.413C79.9928 113.584 78.4052 114.242 76.7498 114.242ZM122.567 114.242C121.747 114.242 120.935 114.08 120.178 113.767C119.421 113.453 118.733 112.993 118.153 112.413C117.573 111.834 117.114 111.146 116.8 110.389C116.486 109.631 116.325 108.82 116.325 108C116.325 107.18 116.486 106.369 116.8 105.611C117.114 104.854 117.573 104.166 118.153 103.586C118.733 103.007 119.421 102.547 120.178 102.233C120.935 101.92 121.747 101.758 122.567 101.758C124.222 101.758 125.809 102.416 126.98 103.586C128.151 104.757 128.808 106.345 128.808 108C128.808 109.655 128.151 111.243 126.98 112.413C125.809 113.584 124.222 114.242 122.567 114.242Z" fill="white"/>
<path d="M137.142 141.333H124.642V143.417C124.642 145.074 125.3 146.664 126.472 147.836C127.644 149.008 129.234 149.667 130.892 149.667C132.549 149.667 134.139 149.008 135.311 147.836C136.483 146.664 137.142 145.074 137.142 143.417V141.333Z" fill="white"/>
<path d="M74.6665 141.333H62.1665V143.417C62.1665 145.074 62.825 146.664 63.9971 147.836C65.1692 149.008 66.7589 149.667 68.4165 149.667C70.0741 149.667 71.6638 149.008 72.8359 147.836C74.008 146.664 74.6665 145.074 74.6665 143.417V141.333Z" fill="white"/>
</svg>
