<svg width="16" height="13" viewBox="0 0 16 13" fill="none" xmlns="http://www.w3.org/2000/svg">
<path d="M13.7939 7.57931L10.4039 4.18931C10.3157 4.10096 10.2637 3.98278 10.2582 3.85803C10.2527 3.73327 10.2941 3.61097 10.3742 3.51519C10.4543 3.4194 10.5673 3.35706 10.6911 3.34042C10.8149 3.32379 10.9404 3.35407 11.0429 3.42531L11.1109 3.48131L15.3539 7.72431C15.4366 7.80716 15.4876 7.9164 15.498 8.03298C15.5084 8.14957 15.4776 8.26611 15.4109 8.36231L15.3539 8.43231L11.1109 12.6743C11.0227 12.7629 10.9046 12.8152 10.7797 12.821C10.6549 12.8268 10.5324 12.7856 10.4364 12.7055C10.3404 12.6255 10.2778 12.5124 10.2611 12.3885C10.2444 12.2646 10.2746 12.139 10.3459 12.0363L10.4039 11.9663L13.7929 8.57831H7.50094C5.55373 8.57828 3.68287 7.82095 2.28396 6.46646C0.885048 5.11196 0.0677671 3.2665 0.00493717 1.32031L0.000937462 1.07831C0.000937462 0.9457 0.0536156 0.818523 0.147384 0.724755C0.241152 0.630986 0.368329 0.578308 0.500937 0.578308C0.633546 0.578308 0.760723 0.630986 0.854491 0.724755C0.948259 0.818523 1.00094 0.9457 1.00094 1.07831C1.00115 2.76173 1.65447 4.37941 2.82338 5.59085C3.99228 6.80228 5.5856 7.51296 7.26794 7.57331L7.50094 7.57831H13.7939L10.4039 4.18831L13.7939 7.57831V7.57931Z" fill="#3E3A39"/>
</svg>
